<svg width="26" height="26" viewBox="0 0 26 26" fill="none" xmlns="http://www.w3.org/2000/svg"><path d="M19.942 4.498a1.56 1.56 0 1 0 0 3.12 1.56 1.56 0 0 0 0-3.12Zm5.98 3.146a9.868 9.868 0 0 0-.598-3.159 6.422 6.422 0 0 0-1.508-2.301A6.11 6.11 0 0 0 21.515.689a9.49 9.49 0 0 0-3.159-.611C16.978 0 16.536 0 13 0 9.464 0 9.022 0 7.644.078a9.49 9.49 0 0 0-3.159.611 6.214 6.214 0 0 0-2.301 1.495A6.11 6.11 0 0 0 .689 4.485a9.49 9.49 0 0 0-.611 3.159C0 9.022 0 9.464 0 13c0 3.536 0 3.978.078 5.356a9.49 9.49 0 0 0 .611 3.159 6.11 6.11 0 0 0 1.495 2.301 6.213 6.213 0 0 0 2.301 1.495 9.49 9.49 0 0 0 3.159.611C9.022 26 9.464 26 13 26c3.536 0 3.978 0 5.356-.078a9.49 9.49 0 0 0 3.159-.611 6.11 6.11 0 0 0 2.301-1.495 6.305 6.305 0 0 0 1.508-2.301c.37-1.013.573-2.08.598-3.159 0-1.378.078-1.82.078-5.356 0-3.536 0-3.978-.078-5.356ZM23.582 18.2a7.293 7.293 0 0 1-.442 2.418 3.978 3.978 0 0 1-.975 1.495c-.422.43-.932.762-1.495.975a7.293 7.293 0 0 1-2.418.442c-1.3.065-1.781.078-5.2.078-3.419 0-3.9 0-5.2-.078a7.45 7.45 0 0 1-2.522-.39 4.251 4.251 0 0 1-1.43-.975 3.9 3.9 0 0 1-.962-1.495 7.202 7.202 0 0 1-.52-2.47c0-1.3-.078-1.781-.078-5.2 0-3.419 0-3.9.078-5.2.006-.844.16-1.68.455-2.47A3.9 3.9 0 0 1 3.9 3.9a4.082 4.082 0 0 1 1.43-1.04 7.449 7.449 0 0 1 2.47-.442c1.3 0 1.781-.078 5.2-.078 3.419 0 3.9 0 5.2.078.825.01 1.643.159 2.418.442.59.22 1.121.576 1.547 1.04.426.4.759.888.975 1.43.289.792.438 1.627.442 2.47.065 1.3.078 1.781.078 5.2 0 3.419-.013 3.9-.078 5.2ZM13 6.331A6.67 6.67 0 1 0 19.682 13 6.656 6.656 0 0 0 13 6.331Zm0 10.998a4.329 4.329 0 1 1 0-8.658 4.329 4.329 0 0 1 0 8.658Z" fill="#333"/></svg>