<svg width="32" height="24" viewBox="0 0 32 24" fill="none" xmlns="http://www.w3.org/2000/svg"><path d="M32 2.875a14.494 14.494 0 0 1-3.776.944c1.373-.756 2.402-1.945 2.896-3.346a13.834 13.834 0 0 1-4.176 1.474C25.959.963 24.648.307 23.216.085a7.05 7.05 0 0 0-4.186.628c-1.281.63-2.299 1.635-2.894 2.856a5.607 5.607 0 0 0-.392 3.89 19.883 19.883 0 0 1-7.49-1.836 18.423 18.423 0 0 1-6.03-4.487 5.764 5.764 0 0 0-.88 3.051 5.654 5.654 0 0 0 .77 2.85 6.237 6.237 0 0 0 2.142 2.177 6.909 6.909 0 0 1-2.976-.752v.074c.008 1.393.538 2.74 1.5 3.815.962 1.074 2.297 1.81 3.78 2.081-.57.16-1.163.245-1.76.25a8.477 8.477 0 0 1-1.232-.102c.422 1.198 1.24 2.245 2.338 2.995a6.949 6.949 0 0 0 3.79 1.191C7.388 20.44 4.537 21.353 1.6 21.361c-.535.001-1.07-.029-1.6-.089 3 1.784 6.494 2.731 10.064 2.727a19.943 19.943 0 0 0 7.189-1.262 18.737 18.737 0 0 0 6.1-3.725 17.062 17.062 0 0 0 4.06-5.61c.934-2.1 1.406-4.35 1.387-6.62V6A12.918 12.918 0 0 0 32 2.875Z" fill="#333"/></svg>